<svg xmlns="http://www.w3.org/2000/svg" viewBox="0 0 526.83845 100"><path d="M60.614843.216957L100.3978 29.113912l3.97837 12.22428L60.614843 9.584051 18.589526 40.144647l-2.459315-7.594903z"/><path d="M44.882434 0h12.839109L13.960148 31.790254l16.057845 49.330897h-7.956521L5.099475 28.896954z"/><path d="M4.014409 31.500931L20.65097 83.00182h51.934943l-2.495498 7.55879H15.189876L0 43.761325z"/><path d="M87.486466 43.07413l6.473794 4.701673L76.925898 100h-49.11394l-10.415907-7.55872h54.068683z"/><path d="M60.647596 12.150165l44.151494 31.985936-15.172865 46.611863-9.841811 7.244692 16.539771-50.986071-41.827746-30.482282z"/><path d="M167.06316 36.154211h-7.71158l-13.14474 39.521841-13.32-39.521841H125l16.73763 46.181841h8.50026zM176.68608 61.830263h31.02158c.0876-.963947.17526-2.366053.17526-3.943421 0-14.021053-7.18579-22.696579-18.84079-22.696579-12.26842 0-20.06763 10.165263-20.06763 24.098684 0 14.371579 7.62395 24.011052 21.11921 24.011052 5.69605 0 11.47973-2.015526 15.77368-5.345526l-3.41763-4.907368c-4.11868 2.716579-7.62395 4.118684-12.35605 4.118684-7.09816 0-13.05711-4.644474-13.40763-15.335526zm12.44368-20.593421c7.01053 0 11.39211 5.082632 11.56737 14.985h-24.01105c.61342-10.165263 5.60842-14.985 12.44368-14.985zM213.12425 82.336052h7.36105V48.773158c2.45368-3.680526 7.09816-7.711579 12.53131-7.711579 6.9229 0 7.88685 3.768158 7.88685 13.232368v28.042105h7.36105V48.860789c0-8.587894-3.94342-13.670526-12.96948-13.670526-5.43315 0-11.56736 2.716579-15.24789 7.448684l-.61342-6.484736h-6.30947zM283.12531 16.7v24.011053c-3.15474-3.592895-7.09816-5.52079-12.44369-5.52079-11.30447 0-18.0521 10.252895-18.0521 24.098684 0 14.371579 5.52079 24.011052 17.61395 24.011052 4.995 0 9.63947-2.190789 13.0571-7.010526l.70105 6.046579h6.48474V17.576316zm-10.51579 24.449211c4.29395 0 7.97447 2.190789 10.51579 5.958947v22.959473c-2.54132 3.85579-6.13421 7.361053-11.39211 7.361053-7.27342 0-11.12921-6.134211-11.12921-18.139737 0-12.180789 4.38158-18.139736 12.00553-18.139736zM303.61453 61.830263h31.02158c.0876-.963947.17526-2.366053.17526-3.943421 0-14.021053-7.18579-22.696579-18.84079-22.696579-12.26842 0-20.06763 10.165263-20.06763 24.098684 0 14.371579 7.62395 24.011052 21.11921 24.011052 5.69605 0 11.47974-2.015526 15.77368-5.345526l-3.41763-4.907368c-4.11868 2.716579-7.62394 4.118684-12.35605 4.118684-7.09816 0-13.0571-4.644474-13.40763-15.335526zm12.44368-20.593421c7.01053 0 11.39211 5.082632 11.56737 14.985h-24.01105c.61342-10.165263 5.60842-14.985 12.44368-14.985zM347.93955 16.7l-7.36105.876316v64.759736h7.36105zm30.75869 19.454211h-9.46421l-20.50579 20.943947 22.69658 25.237894h9.7271l-23.13474-25.325526zM384.25702 75.588421c0 4.381578 3.33 7.711578 7.71158 7.711578 4.46921 0 7.71158-3.33 7.71158-7.711578 0-4.293948-3.24237-7.711579-7.71158-7.711579-4.38158 0-7.71158 3.417631-7.71158 7.711579zM405.50183 82.336052h7.36106V48.773158c2.45368-3.680526 7.09815-7.711579 12.53131-7.711579 6.9229 0 7.88684 3.768158 7.88684 13.232368v28.042105h7.36106V48.860789c0-8.587894-3.94342-13.670526-12.96948-13.670526-5.43315 0-11.56737 2.716579-15.24789 7.448684l-.61342-6.484736h-6.30948zM453.68263 61.830263h31.02158c.0876-.963947.17527-2.366053.17527-3.943421 0-14.021053-7.18579-22.696579-18.84079-22.696579-12.26842 0-20.06764 10.165263-20.06764 24.098684 0 14.371579 7.62395 24.011052 21.11921 24.011052 5.69606 0 11.47974-2.015526 15.77369-5.345526l-3.41763-4.907368c-4.11869 2.716579-7.62395 4.118684-12.35606 4.118684-7.09815 0-13.0571-4.644474-13.40763-15.335526zm12.44369-20.593421c7.01052 0 11.3921 5.082632 11.56737 14.985h-24.01106c.61342-10.165263 5.60842-14.985 12.44369-14.985zM526.83843 79.969999L523.94659 74.975c-2.45368 1.314473-5.43316 2.190789-8.85079 2.190789-6.30947 0-8.85079-2.716579-8.85079-7.79921V41.937895h15.07263l.96395-5.783684h-16.03658V24.849737l-7.36105.876316v10.428158h-10.60342v5.783684h10.60342V69.45421c0 8.062105 5.60842 13.845789 15.51079 13.845789 4.38158 0 9.20131-1.226842 12.44368-3.33z"/></svg>
